<svg width="744" height="188" xmlns="http://www.w3.org/2000/svg" xmlns:svg="http://www.w3.org/2000/svg">
 <metadata id="metadata3686">image/svg+xml</metadata>
 <defs>
  <clipPath id="clipPath3696" clipPathUnits="userSpaceOnUse">
   <path id="path3694" d="m0,841.89001l595.28003,0l0,-841.89001l-595.28003,0l0,841.89001z"/>
  </clipPath>
 </defs>
 <g>
  <title>Layer 1</title>
  <g id="svg_1">
   <g transform="matrix(1.33333 0 0 -1.33333 0 1122.52)" id="g3734">
    <path fill="#1b5199" fill-rule="nonzero" id="path3736" d="m54.895,741.7431c-2.087,8.77899 -5.558,17.03003 -9.328,25.15802c-5.249,11.32098 -10.555,22.62299 -16.116,33.79297c-4.374,8.78302 -6.653,17.88501 -5.696,27.69604c0.362,3.69696 0.894,7.37695 1.281,11.07098c0.006,0.06598 0.022,0.37799 0.04399,0.453c0.016,1.75098 -0.51,1.97595 -1.633,1.59296c-0.606,-0.20697 -2.002,-1.09698 -2.477,-1.45996c-6.011,-4.59204 -11.224,-9.95905 -15.508,-16.19702c-2.496,-3.63702 -4.619,-7.48102 -5.046,-11.98102c-0.416,-4.38196 0.716,-8.56696 1.971,-12.69995c3.314,-10.90302 8.279,-21.11902 13.123,-31.38501c4.364,-9.24603 8.747,-18.48199 13.031,-27.76404c2.657,-5.75897 4.244,-11.802 3.072,-18.17297c-0.862,-4.68402 -2.151,-9.29102 -3.298,-13.92102c-0.444,-1.79901 -1.02,-3.565 -1.394,-4.854c-0.015,-1.75098 0.577,-2.13196 1.634,-1.59198c0.883,0.45001 1.764,0.953 2.527,1.578c8.65,7.09497 15.931,15.388 21.795,24.92902c2.655,4.31799 3.19099,8.82599 2.018,13.75598"/>
   </g>
   <g transform="matrix(1.33333 0 0 -1.33333 0 1122.52)" id="g3738">
    <path fill="#1b5199" fill-rule="nonzero" id="path3740" d="m314.44888,741.51331c-2.086,8.77899 -5.55701,17.03003 -9.328,25.15802c-5.24799,11.32098 -10.55499,22.62299 -16.11499,33.79297c-4.375,8.78302 -6.65302,17.88501 -5.69601,27.69604c0.362,3.69696 0.89301,7.37695 1.28,11.07098c0.00702,0.06598 0.02301,0.37799 0.04501,0.453c0.01498,1.75098 -0.51001,1.97601 -1.633,1.59296c-0.60602,-0.20697 -2.00201,-1.09698 -2.47702,-1.45996c-6.01199,-4.59204 -11.224,-9.95898 -15.508,-16.19702c-2.496,-3.63696 -4.61899,-7.48102 -5.047,-11.98102c-0.41599,-4.38196 0.71701,-8.56696 1.97101,-12.69995c3.315,-10.90302 8.27899,-21.11902 13.12299,-31.38501c4.36401,-9.24603 8.74802,-18.48199 13.03101,-27.76404c2.65701,-5.75897 4.245,-11.802 3.073,-18.17297c-0.862,-4.685 -2.151,-9.29199 -3.29898,-13.92102c-0.44302,-1.79797 -1.02002,-3.565 -1.39301,-4.854c-0.01501,-1.75098 0.577,-2.13196 1.633,-1.59198c0.883,0.45001 1.76401,0.95398 2.52798,1.578c8.65002,7.09497 15.931,15.388 21.79401,24.92902c2.655,4.31799 3.19202,8.82599 2.01801,13.75598"/>
   </g>
   <g font-style="normal" font-weight="normal" font-size="40px" font-family="Courier" fill="#1b5199" id="flowRoot4616" transform="matrix(1 0 0 1 -58.6978 -64.4504)">
    <path id="path4634" d="m154.41841,144.06612l8.6875,0l0,12.5q5.1875,-7.125 11.9375,-10.6875q6.75,-3.5625 15.0625,-3.5625q14.5,0 24.8125,10.4375q10.3125,10.4375 10.3125,25.125q0,15 -10.25,25.5q-10.1875,10.4375 -24.625,10.4375q-8.125,0 -14.9375,-3.375q-6.8125,-3.375 -12.3125,-10.0625l0,36.5625l-8.6875,0l0,-92.875zm35,6.6875q-11.375,0 -19.1875,7.9375q-7.75,7.9375 -7.75,19.75q0,7.75 3.4375,13.9375q3.5,6.1875 9.9375,9.8125q6.5,3.625 13.6875,3.625q7.0625,0 13.25,-3.625q6.25,-3.6875 9.9375,-10.25q3.6875,-6.5625 3.6875,-13.75q0,-7.25 -3.6875,-13.75q-3.625,-6.5 -9.8125,-10.0625q-6.1875,-3.625 -13.5,-3.625z"/>
    <path id="path4636" d="m273.7309,142.31612q15.68753,0 26,11.375q9.37503,10.375 9.37503,24.5625q0,14.25 -9.93753,24.9375q-9.87497,10.625 -25.4375,10.625q-15.62497,0 -25.56248,-10.625q-9.875,-10.6875 -9.875,-24.9375q0,-14.125 9.375,-24.5q10.31248,-11.4375 26.06248,-11.4375zm0,8.5625q-10.875,0 -18.68748,8.0625q-7.8125,8.0625 -7.8125,19.5q0,7.375 3.5625,13.75q3.5625,6.375 9.62502,9.875q6.0625,3.4375 13.31247,3.4375q7.25,0 13.3125,-3.4375q6.06253,-3.5 9.62503,-9.875q3.56247,-6.375 3.56247,-13.75q0,-11.4375 -7.87497,-19.5q-7.8125,-8.0625 -18.62503,-8.0625z"/>
    <path id="path4638" d="m321.9809,144.06612l8.93753,0l0,9.9375q4,-5.875 8.4375,-8.75q4.43747,-2.9375 9.24997,-2.9375q3.625,0 7.75003,2.3125l-4.56253,7.375q-2.75,-1.1875 -4.625,-1.1875q-4.375,0 -8.4375,3.625q-4.06247,3.5625 -6.18747,11.125q-1.625,5.8125 -1.625,23.5l0,23l-8.93753,0l0,-68z"/>
    <path id="path4640" d="m371.41843,118.81612l8.81247,0l0,25.25l13.87503,0l0,7.5l-13.87503,0l0,60.5l-8.81247,0l0,-60.5l-11.9375,0l0,-7.5l11.9375,0l0,-25.25z"/>
   </g>
   <g font-style="normal" font-weight="normal" font-size="40px" font-family="Courier" fill="#1b5199" id="flowRoot4626" transform="matrix(1 0 0 1 -22.3176 2.03181)">
    <path id="path4643" d="m462.00824,52.23605l8.8125,0l0,25.24999l13.87503,0l0,7.5l-13.87503,0l0,60.5l-8.8125,0l0,-60.5l-11.93747,0l0,-7.5l11.93747,0l0,-25.24999z"/>
    <path id="path4645" d="m555.38324,122.92354l7.375,3.875q-3.625,7.125 -8.375,11.5q-4.75,4.375 -10.6875,6.6875q-5.9375,2.25 -13.4375,2.25q-16.625,0 -26,-10.875q-9.375,-10.9375 -9.375,-24.6875q0,-12.9375 7.9375,-23.0625q10.0625,-12.875 26.9375,-12.875q17.375,0 27.75,13.1875q7.375,9.3125 7.5,23.25l-61.125,0q0.25,11.875 7.5625,19.5q7.3125,7.5625 18.0625,7.5625q5.1875,0 10.0625,-1.8125q4.9375,-1.8125 8.375,-4.8125q3.4375,-3 7.4375,-9.6875zm0,-18.3125q-1.75,-7 -5.125,-11.1875q-3.3125,-4.1875 -8.8125,-6.75q-5.5,-2.5625 -11.5625,-2.5625q-10,0 -17.1875,6.4375q-5.25,4.6875 -7.9375,14.0625l50.625,0z"/>
    <path id="path4647" d="m638.63324,122.92354l7.375,3.875q-3.625,7.125 -8.375,11.5q-4.75,4.375 -10.6875,6.6875q-5.9375,2.25 -13.4375,2.25q-16.625,0 -26,-10.875q-9.375,-10.9375 -9.375,-24.6875q0,-12.9375 7.9375,-23.0625q10.0625,-12.875 26.9375,-12.875q17.375,0 27.75,13.1875q7.375,9.3125 7.5,23.25l-61.125,0q0.25,11.875 7.5625,19.5q7.3125,7.5625 18.0625,7.5625q5.1875,0 10.0625,-1.8125q4.9375,-1.8125 8.375,-4.8125q3.4375,-3 7.4375,-9.6875zm0,-18.3125q-1.75,-7 -5.125,-11.1875q-3.3125,-4.1875 -8.8125,-6.75q-5.5,-2.5625 -11.5625,-2.5625q-10,0 -17.1875,6.4375q-5.25,4.6875 -7.9375,14.0625l50.625,0z"/>
    <path id="path4649" d="m664.57074,77.48604l8.6875,0l0,11.75q4.5625,-6.5 9.375,-9.5q6.625,-4 13.9375,-4q4.9375,0 9.375,1.9375q4.4375,1.9375 7.25,5.1875q2.8125,3.1875 4.875,9.1875q4.375,-8 10.9375,-12.125q6.5625,-4.1875 14.125,-4.1875q7.0625,0 12.4375,3.5625q5.4375,3.5625 8.0625,9.9375q2.625,6.375 2.625,19.125l0,37.125l-8.9375,0l0,-37.125q0,-10.9375 -1.5625,-15q-1.5625,-4.125 -5.375,-6.625q-3.75,-2.5 -9,-2.5q-6.375,0 -11.6875,3.75q-5.25,3.75 -7.6875,10q-2.4375,6.25 -2.4375,20.875l0,26.625l-8.6875,0l0,-34.8125q0,-12.3125 -1.5625,-16.6875q-1.5,-4.4375 -5.3125,-7.0625q-3.8125,-2.6875 -9.0625,-2.6875q-6.0625,0 -11.375,3.6875q-5.25,3.625 -7.8125,9.8125q-2.5,6.1875 -2.5,18.9375l0,28.8125l-8.6875,0l0,-68z"/>
   </g>
  </g>
 </g>
 </svg>