<?xml version="1.0" encoding="UTF-8"?>
<svg width="744" height="188" xmlns="http://www.w3.org/2000/svg" xmlns:svg="http://www.w3.org/2000/svg">
 <title>sportsteem logo</title>
 <metadata id="metadata3686">image/svg+xml</metadata>
 <defs>
  <clipPath id="clipPath3696" clipPathUnits="userSpaceOnUse">
   <path id="path3694" d="m0,841.890015l595.280029,0l0,-841.890015l-595.280029,0l0,841.890015z"/>
  </clipPath>
 </defs>
 <g>
  <title>Layer 1</title>
  <g id="svg_1">
   <g transform="matrix(1.33333 0 0 -1.33333 0 1122.52)" id="g3734">
    <path fill="#1b5199" fill-rule="nonzero" id="path3736" d="m54.895,741.743103c-2.087002,8.778992 -5.557999,17.030029 -9.327999,25.15802c-5.249001,11.320984 -10.555,22.622986 -16.116001,33.792969c-4.374001,8.78302 -6.653,17.88501 -5.696001,27.696045c0.362001,3.69696 0.894001,7.376953 1.281,11.070984c0.006001,0.065979 0.022001,0.377991 0.043991,0.453003c0.015999,1.750977 -0.51,1.975952 -1.632999,1.592957c-0.606001,-0.20697 -2.002001,-1.096985 -2.477001,-1.459961c-6.011,-4.592041 -11.224,-9.959045 -15.508,-16.197021c-2.496,-3.637024 -4.619,-7.481018 -5.046,-11.981018c-0.416,-4.381958 0.716,-8.566956 1.971,-12.699951c3.314,-10.903015 8.279,-21.119019 13.123,-31.38501c4.363999,-9.246033 8.747001,-18.481995 13.031001,-27.764038c2.657,-5.758972 4.243998,-11.802002 3.071999,-18.172974c-0.862,-4.684021 -2.150999,-9.291016 -3.298,-13.921021c-0.443998,-1.799011 -1.019999,-3.565002 -1.393999,-4.854004c-0.014999,-1.750977 0.577,-2.131958 1.634001,-1.59198c0.882999,0.450012 1.764,0.953003 2.526999,1.578003c8.650002,7.094971 15.931,15.388 21.795002,24.929016c2.654999,4.317993 3.19099,8.825989 2.017998,13.755981"/>
   </g>
   <g transform="matrix(1.33333 0 0 -1.33333 0 1122.52)" id="g3738">
    <path fill="#1b5199" fill-rule="nonzero" id="path3740" d="m314.448883,741.513306c-2.085999,8.778992 -5.557007,17.030029 -9.328003,25.15802c-5.247986,11.320984 -10.554993,22.622986 -16.11499,33.792969c-4.375,8.78302 -6.653015,17.88501 -5.696014,27.696045c0.362,3.69696 0.893005,7.376953 1.279999,11.070984c0.007019,0.065979 0.02301,0.377991 0.045013,0.453003c0.014984,1.750977 -0.51001,1.976013 -1.632996,1.592957c-0.606018,-0.20697 -2.002014,-1.096985 -2.47702,-1.459961c-6.011993,-4.592041 -11.223999,-9.958984 -15.507996,-16.197021c-2.496002,-3.636963 -4.618988,-7.481018 -5.046997,-11.981018c-0.415985,-4.381958 0.71701,-8.566956 1.971008,-12.699951c3.315002,-10.903015 8.278992,-21.119019 13.122986,-31.38501c4.364014,-9.246033 8.748016,-18.481995 13.031006,-27.764038c2.657013,-5.758972 4.244995,-11.802002 3.072998,-18.172974c-0.862,-4.684998 -2.151001,-9.291992 -3.298981,-13.921021c-0.443024,-1.797974 -1.02002,-3.565002 -1.393005,-4.854004c-0.015015,-1.750977 0.576996,-2.131958 1.632996,-1.59198c0.882996,0.450012 1.764008,0.953979 2.527985,1.578003c8.650024,7.094971 15.931,15.388 21.794006,24.929016c2.654999,4.317993 3.192017,8.825989 2.018005,13.755981"/>
   </g>
   <g font-style="normal" font-weight="normal" font-size="40px" font-family="Courier" fill="#1b5199" id="flowRoot4616" transform="matrix(1 0 0 1 -58.6978 -64.4504)">
    <path id="path4634" d="m154.418411,144.066116l8.6875,0l0,12.5q5.1875,-7.125 11.9375,-10.6875q6.75,-3.5625 15.0625,-3.5625q14.5,0 24.8125,10.4375q10.3125,10.4375 10.3125,25.125q0,15 -10.25,25.5q-10.1875,10.4375 -24.625,10.4375q-8.125,0 -14.9375,-3.375q-6.8125,-3.375 -12.3125,-10.0625l0,36.5625l-8.6875,0l0,-92.875zm35,6.6875q-11.375,0 -19.1875,7.9375q-7.75,7.9375 -7.75,19.75q0,7.75 3.4375,13.9375q3.5,6.1875 9.9375,9.8125q6.5,3.625 13.6875,3.625q7.0625,0 13.25,-3.625q6.25,-3.6875 9.9375,-10.25q3.6875,-6.5625 3.6875,-13.75q0,-7.25 -3.6875,-13.75q-3.625,-6.5 -9.8125,-10.0625q-6.1875,-3.625 -13.5,-3.625z"/>
    <path id="path4636" d="m273.730896,142.316116q15.687531,0 26,11.375q9.375031,10.375 9.375031,24.5625q0,14.25 -9.937531,24.9375q-9.874969,10.625 -25.4375,10.625q-15.624969,0 -25.562485,-10.625q-9.875,-10.6875 -9.875,-24.9375q0,-14.125 9.375,-24.5q10.312485,-11.4375 26.062485,-11.4375zm0,8.5625q-10.875,0 -18.687469,8.0625q-7.8125,8.0625 -7.8125,19.5q0,7.375 3.5625,13.75q3.5625,6.375 9.625,9.875q6.0625,3.4375 13.312469,3.4375q7.25,0 13.3125,-3.4375q6.062531,-3.5 9.625031,-9.875q3.562469,-6.375 3.562469,-13.75q0,-11.4375 -7.874969,-19.5q-7.8125,-8.0625 -18.625031,-8.0625z"/>
    <path id="path4638" d="m321.980896,144.066116l8.937531,0l0,9.9375q4,-5.875 8.4375,-8.75q4.437469,-2.9375 9.249969,-2.9375q3.625,0 7.750031,2.3125l-4.562531,7.375q-2.75,-1.1875 -4.625,-1.1875q-4.375,0 -8.4375,3.625q-4.062469,3.5625 -6.187469,11.125q-1.625,5.8125 -1.625,23.5l0,23l-8.937531,0l0,-68z"/>
    <path id="path4640" d="m371.418427,118.816116l8.812469,0l0,25.25l13.875031,0l0,7.5l-13.875031,0l0,60.5l-8.812469,0l0,-60.5l-11.9375,0l0,-7.5l11.9375,0l0,-25.25z"/>
   </g>
   <g font-style="normal" font-weight="normal" font-size="40px" font-family="Courier" fill="#1b5199" id="flowRoot4626" transform="matrix(1 0 0 1 -22.3176 2.03181)">
    <path id="path4643" d="m462.00824,52.23605l8.8125,0l0,25.249989l13.875031,0l0,7.5l-13.875031,0l0,60.5l-8.8125,0l0,-60.5l-11.937469,0l0,-7.5l11.937469,0l0,-25.249989z"/>
    <path id="path4645" d="m555.38324,122.923538l7.375,3.875q-3.625,7.125 -8.375,11.5q-4.75,4.375 -10.6875,6.6875q-5.9375,2.25 -13.4375,2.25q-16.625,0 -26,-10.875q-9.375,-10.9375 -9.375,-24.6875q0,-12.9375 7.9375,-23.0625q10.0625,-12.875 26.9375,-12.875q17.375,0 27.75,13.1875q7.375,9.3125 7.5,23.25l-61.125,0q0.25,11.875 7.5625,19.5q7.3125,7.5625 18.0625,7.5625q5.1875,0 10.0625,-1.8125q4.9375,-1.8125 8.375,-4.8125q3.4375,-3 7.4375,-9.6875zm0,-18.3125q-1.75,-7 -5.125,-11.1875q-3.3125,-4.1875 -8.8125,-6.75q-5.5,-2.5625 -11.5625,-2.5625q-10,0 -17.1875,6.4375q-5.25,4.6875 -7.9375,14.0625l50.625,0z"/>
    <path id="path4647" d="m638.63324,122.923538l7.375,3.875q-3.625,7.125 -8.375,11.5q-4.75,4.375 -10.6875,6.6875q-5.9375,2.25 -13.4375,2.25q-16.625,0 -26,-10.875q-9.375,-10.9375 -9.375,-24.6875q0,-12.9375 7.9375,-23.0625q10.0625,-12.875 26.9375,-12.875q17.375,0 27.75,13.1875q7.375,9.3125 7.5,23.25l-61.125,0q0.25,11.875 7.5625,19.5q7.3125,7.5625 18.0625,7.5625q5.1875,0 10.0625,-1.8125q4.9375,-1.8125 8.375,-4.8125q3.4375,-3 7.4375,-9.6875zm0,-18.3125q-1.75,-7 -5.125,-11.1875q-3.3125,-4.1875 -8.8125,-6.75q-5.5,-2.5625 -11.5625,-2.5625q-10,0 -17.1875,6.4375q-5.25,4.6875 -7.9375,14.0625l50.625,0z"/>
    <path id="path4649" d="m664.57074,77.486038l8.6875,0l0,11.75q4.5625,-6.5 9.375,-9.5q6.625,-4 13.9375,-4q4.9375,0 9.375,1.9375q4.4375,1.9375 7.25,5.1875q2.8125,3.1875 4.875,9.1875q4.375,-8 10.9375,-12.125q6.5625,-4.1875 14.125,-4.1875q7.0625,0 12.4375,3.5625q5.4375,3.5625 8.0625,9.9375q2.625,6.375 2.625,19.125l0,37.125l-8.9375,0l0,-37.125q0,-10.9375 -1.5625,-15q-1.5625,-4.125 -5.375,-6.625q-3.75,-2.5 -9,-2.5q-6.375,0 -11.6875,3.75q-5.25,3.75 -7.6875,10q-2.4375,6.25 -2.4375,20.875l0,26.625l-8.6875,0l0,-34.8125q0,-12.3125 -1.5625,-16.6875q-1.5,-4.4375 -5.3125,-7.0625q-3.8125,-2.6875 -9.0625,-2.6875q-6.0625,0 -11.375,3.6875q-5.25,3.625 -7.8125,9.8125q-2.5,6.1875 -2.5,18.9375l0,28.8125l-8.6875,0l0,-68z"/>
   </g>
  </g>
 </g>
</svg>