<?xml version="1.0" encoding="UTF-8" standalone="no"?>
<!-- Created with Inkscape (http://www.inkscape.org/) -->

<svg
   xmlns:dc="http://purl.org/dc/elements/1.1/"
   xmlns:cc="http://creativecommons.org/ns#"
   xmlns:rdf="http://www.w3.org/1999/02/22-rdf-syntax-ns#"
   xmlns:svg="http://www.w3.org/2000/svg"
   xmlns="http://www.w3.org/2000/svg"
   xmlns:sodipodi="http://sodipodi.sourceforge.net/DTD/sodipodi-0.dtd"
   xmlns:inkscape="http://www.inkscape.org/namespaces/inkscape"
   version="1.1"
   id="svg3680"
   xml:space="preserve"
   width="793.70667"
   height="1122.52"
   viewBox="0 0 793.70667 1122.52"
   sodipodi:docname="SportSteem_03_inkscape.svg"
   inkscape:version="0.92.1 r15371"
   inkscape:export-filename="C:\Users\Andrew\Desktop\UnVig\Design\SportSteem_01_inkscape.png"
   inkscape:export-xdpi="300"
   inkscape:export-ydpi="300"><metadata
     id="metadata3686"><rdf:RDF><cc:Work
         rdf:about=""><dc:format>image/svg+xml</dc:format><dc:type
           rdf:resource="http://purl.org/dc/dcmitype/StillImage" /><dc:title></dc:title></cc:Work></rdf:RDF></metadata><defs
     id="defs3684"><clipPath
       clipPathUnits="userSpaceOnUse"
       id="clipPath3696"><path
         d="M 0,841.89 H 595.28 V 0 H 0 Z"
         id="path3694"
         inkscape:connector-curvature="0" /></clipPath></defs><sodipodi:namedview
     pagecolor="#ffffff"
     bordercolor="#666666"
     borderopacity="1"
     objecttolerance="10"
     gridtolerance="10"
     guidetolerance="10"
     inkscape:pageopacity="0"
     inkscape:pageshadow="2"
     inkscape:window-width="3840"
     inkscape:window-height="2035"
     id="namedview3682"
     showgrid="false"
     inkscape:zoom="2.2148268"
     inkscape:cx="282.19584"
     inkscape:cy="870.37513"
     inkscape:window-x="-13"
     inkscape:window-y="-13"
     inkscape:window-maximized="1"
     inkscape:current-layer="g3688" /><g
     id="g3688"
     inkscape:groupmode="layer"
     inkscape:label="steem"
     transform="matrix(1.3333333,0,0,-1.3333333,0,1122.52)"><g
       id="g3734"
       transform="translate(72.915174,697.26662)"><path
         d="m 0,0 c -2.087,8.779 -5.558,17.03 -9.328,25.158 -5.249,11.321 -10.555,22.623 -16.116,33.793 -4.374,8.783 -6.653,17.885 -5.696,27.696 0.362,3.697 0.894,7.377 1.281,11.071 0.006,0.066 0.022,0.378 0.044,0.453 0.016,1.751 -0.51,1.976 -1.633,1.593 -0.606,-0.207 -2.002,-1.097 -2.477,-1.46 -6.011,-4.592 -11.224,-9.959 -15.508,-16.197 -2.496,-3.637 -4.619,-7.481 -5.046,-11.981 -0.416,-4.382 0.716,-8.567 1.971,-12.7 3.314,-10.903 8.279,-21.119 13.123,-31.385 4.364,-9.246 8.747,-18.482 13.031,-27.764 2.657,-5.759 4.244,-11.802 3.072,-18.173 -0.862,-4.684 -2.151,-9.291 -3.298,-13.921 -0.444,-1.799 -1.02,-3.565 -1.394,-4.854 -0.015,-1.751 0.577,-2.132 1.634,-1.592 0.883,0.45 1.764,0.953 2.527,1.578 8.65,7.095 15.931,15.388 21.795,24.929 C 0.637,-9.438 1.173,-4.93 0,0"
         style="fill:#1b5199;fill-opacity:1;fill-rule:nonzero;stroke:none"
         id="path3736"
         inkscape:connector-curvature="0" /></g><g
       id="g3738"
       transform="translate(332.46906,697.03678)"><path
         d="m 0,0 c -2.086,8.779 -5.557,17.03 -9.328,25.158 -5.248,11.321 -10.555,22.623 -16.115,33.793 -4.375,8.783 -6.653,17.885 -5.696,27.696 0.362,3.697 0.893,7.377 1.28,11.071 0.007,0.066 0.023,0.378 0.045,0.453 0.015,1.751 -0.51,1.976 -1.633,1.593 -0.606,-0.207 -2.002,-1.097 -2.477,-1.46 -6.012,-4.592 -11.224,-9.959 -15.508,-16.197 -2.496,-3.637 -4.619,-7.481 -5.047,-11.981 -0.416,-4.382 0.717,-8.567 1.971,-12.7 3.315,-10.903 8.279,-21.119 13.123,-31.385 4.364,-9.246 8.748,-18.482 13.031,-27.764 2.657,-5.759 4.245,-11.802 3.073,-18.173 -0.862,-4.685 -2.151,-9.292 -3.299,-13.921 -0.443,-1.798 -1.02,-3.565 -1.393,-4.854 -0.015,-1.751 0.577,-2.132 1.633,-1.592 0.883,0.45 1.764,0.954 2.528,1.578 8.65,7.095 15.931,15.388 21.794,24.929 C 0.637,-9.438 1.174,-4.93 0,0"
         style="fill:#1b5199;fill-opacity:1;fill-rule:nonzero;stroke:none"
         id="path3740"
         inkscape:connector-curvature="0" /></g><flowRoot
       xml:space="preserve"
       id="flowRoot3787"
       style="font-style:normal;font-variant:normal;font-weight:normal;font-stretch:normal;font-size:40px;line-height:1.25;font-family:Courier;-inkscape-font-specification:Courier;letter-spacing:0px;word-spacing:0px;fill:#000000;fill-opacity:1;stroke:none"
       transform="matrix(0.75000002,0,0,-0.75000002,0,841.89002)"><flowRegion
         id="flowRegion3789"><rect
           id="rect3791"
           width="227.31349"
           height="90.031471"
           x="166.01547"
           y="163.4614" /></flowRegion><flowPara
         id="flowPara3793" /></flowRoot><flowRoot
       xml:space="preserve"
       id="flowRoot4608"
       style="fill:black;fill-opacity:1;stroke:none;font-family:Courier;font-style:normal;font-weight:normal;font-size:40px;line-height:1.25;letter-spacing:0px;word-spacing:0px;-inkscape-font-specification:Courier;font-stretch:normal;font-variant:normal"><flowRegion
         id="flowRegion4610"><rect
           id="rect4612"
           width="32.564575"
           height="40.865349"
           x="190.9178"
           y="167.93105" /></flowRegion><flowPara
         id="flowPara4614"></flowPara></flowRoot><g
       aria-label="port"
       transform="matrix(0.75000002,0,0,-0.75000002,-44.023331,890.22785)"
       style="font-style:normal;font-variant:normal;font-weight:normal;font-stretch:normal;font-size:40px;line-height:1.25;font-family:Courier;-inkscape-font-specification:Courier;letter-spacing:0px;word-spacing:0px;fill:#1b5199;fill-opacity:1;stroke:none"
       id="flowRoot4616"><path
         d="m 178.44531,203.36811 h 8.6875 v 12.5 q 5.1875,-7.125 11.9375,-10.6875 6.75,-3.5625 15.0625,-3.5625 14.5,0 24.8125,10.4375 10.3125,10.4375 10.3125,25.125 0,15 -10.25,25.5 -10.1875,10.4375 -24.625,10.4375 -8.125,0 -14.9375,-3.375 -6.8125,-3.375 -12.3125,-10.0625 v 36.5625 h -8.6875 z m 35,6.6875 q -11.375,0 -19.1875,7.9375 -7.75,7.9375 -7.75,19.75 0,7.75 3.4375,13.9375 3.5,6.1875 9.9375,9.8125 6.5,3.625 13.6875,3.625 7.0625,0 13.25,-3.625 6.25,-3.6875 9.9375,-10.25 3.6875,-6.5625 3.6875,-13.75 0,-7.25 -3.6875,-13.75 -3.625,-6.5 -9.8125,-10.0625 -6.1875,-3.625 -13.5,-3.625 z"
         style="font-style:normal;font-variant:normal;font-weight:normal;font-stretch:normal;font-size:128px;font-family:'Century Gothic';-inkscape-font-specification:'Century Gothic'"
         id="path4634" /><path
         d="m 297.75781,201.61811 q 15.6875,0 26,11.375 9.375,10.375 9.375,24.5625 0,14.25 -9.9375,24.9375 -9.875,10.625 -25.4375,10.625 -15.625,0 -25.5625,-10.625 -9.875,-10.6875 -9.875,-24.9375 0,-14.125 9.375,-24.5 10.3125,-11.4375 26.0625,-11.4375 z m 0,8.5625 q -10.875,0 -18.6875,8.0625 -7.8125,8.0625 -7.8125,19.5 0,7.375 3.5625,13.75 3.5625,6.375 9.625,9.875 6.0625,3.4375 13.3125,3.4375 7.25,0 13.3125,-3.4375 6.0625,-3.5 9.625,-9.875 3.5625,-6.375 3.5625,-13.75 0,-11.4375 -7.875,-19.5 -7.8125,-8.0625 -18.625,-8.0625 z"
         style="font-style:normal;font-variant:normal;font-weight:normal;font-stretch:normal;font-size:128px;font-family:'Century Gothic';-inkscape-font-specification:'Century Gothic'"
         id="path4636" /><path
         d="m 346.00781,203.36811 h 8.9375 v 9.9375 q 4,-5.875 8.4375,-8.75 4.4375,-2.9375 9.25,-2.9375 3.625,0 7.75,2.3125 l -4.5625,7.375 q -2.75,-1.1875 -4.625,-1.1875 -4.375,0 -8.4375,3.625 -4.0625,3.5625 -6.1875,11.125 -1.625,5.8125 -1.625,23.5 v 23 h -8.9375 z"
         style="font-style:normal;font-variant:normal;font-weight:normal;font-stretch:normal;font-size:128px;font-family:'Century Gothic';-inkscape-font-specification:'Century Gothic'"
         id="path4638" /><path
         d="m 395.44531,178.11811 h 8.8125 v 25.25 h 13.875 v 7.5 h -13.875 v 60.5 h -8.8125 v -60.5 h -11.9375 v -7.5 h 11.9375 z"
         style="font-style:normal;font-variant:normal;font-weight:normal;font-stretch:normal;font-size:128px;font-family:'Century Gothic';-inkscape-font-specification:'Century Gothic'"
         id="path4640" /></g><g
       aria-label="teem"
       transform="matrix(0.75000002,0,0,-0.75000002,-16.738212,840.3662)"
       style="font-style:normal;font-variant:normal;font-weight:normal;font-stretch:normal;font-size:40px;line-height:1.25;font-family:Courier;-inkscape-font-specification:Courier;letter-spacing:0px;word-spacing:0px;fill:#1b5199;fill-opacity:1;stroke:none"
       id="flowRoot4626"><path
         d="m 486.03516,111.53803 h 8.8125 v 25.25 h 13.875 v 7.5 h -13.875 v 60.5 h -8.8125 v -60.5 h -11.9375 v -7.5 h 11.9375 z"
         style="font-style:normal;font-variant:normal;font-weight:normal;font-stretch:normal;font-size:128px;font-family:'Century Gothic';-inkscape-font-specification:'Century Gothic'"
         id="path4643" /><path
         d="m 579.41016,182.22553 7.375,3.875 q -3.625,7.125 -8.375,11.5 -4.75,4.375 -10.6875,6.6875 -5.9375,2.25 -13.4375,2.25 -16.625,0 -26,-10.875 -9.375,-10.9375 -9.375,-24.6875 0,-12.9375 7.9375,-23.0625 10.0625,-12.875 26.9375,-12.875 17.375,0 27.75,13.1875 7.375,9.3125 7.5,23.25 h -61.125 q 0.25,11.875 7.5625,19.5 7.3125,7.5625 18.0625,7.5625 5.1875,0 10.0625,-1.8125 4.9375,-1.8125 8.375,-4.8125 3.4375,-3 7.4375,-9.6875 z m 0,-18.3125 q -1.75,-7 -5.125,-11.1875 -3.3125,-4.1875 -8.8125,-6.75 -5.5,-2.5625 -11.5625,-2.5625 -10,0 -17.1875,6.4375 -5.25,4.6875 -7.9375,14.0625 z"
         style="font-style:normal;font-variant:normal;font-weight:normal;font-stretch:normal;font-size:128px;font-family:'Century Gothic';-inkscape-font-specification:'Century Gothic'"
         id="path4645" /><path
         d="m 662.66016,182.22553 7.375,3.875 q -3.625,7.125 -8.375,11.5 -4.75,4.375 -10.6875,6.6875 -5.9375,2.25 -13.4375,2.25 -16.625,0 -26,-10.875 -9.375,-10.9375 -9.375,-24.6875 0,-12.9375 7.9375,-23.0625 10.0625,-12.875 26.9375,-12.875 17.375,0 27.75,13.1875 7.375,9.3125 7.5,23.25 h -61.125 q 0.25,11.875 7.5625,19.5 7.3125,7.5625 18.0625,7.5625 5.1875,0 10.0625,-1.8125 4.9375,-1.8125 8.375,-4.8125 3.4375,-3 7.4375,-9.6875 z m 0,-18.3125 q -1.75,-7 -5.125,-11.1875 -3.3125,-4.1875 -8.8125,-6.75 -5.5,-2.5625 -11.5625,-2.5625 -10,0 -17.1875,6.4375 -5.25,4.6875 -7.9375,14.0625 z"
         style="font-style:normal;font-variant:normal;font-weight:normal;font-stretch:normal;font-size:128px;font-family:'Century Gothic';-inkscape-font-specification:'Century Gothic'"
         id="path4647" /><path
         d="m 688.59766,136.78803 h 8.6875 v 11.75 q 4.5625,-6.5 9.375,-9.5 6.625,-4 13.9375,-4 4.9375,0 9.375,1.9375 4.4375,1.9375 7.25,5.1875 2.8125,3.1875 4.875,9.1875 4.375,-8 10.9375,-12.125 6.5625,-4.1875 14.125,-4.1875 7.0625,0 12.4375,3.5625 5.4375,3.5625 8.0625,9.9375 2.625,6.375 2.625,19.125 v 37.125 h -8.9375 v -37.125 q 0,-10.9375 -1.5625,-15 -1.5625,-4.125 -5.375,-6.625 -3.75,-2.5 -9,-2.5 -6.375,0 -11.6875,3.75 -5.25,3.75 -7.6875,10 -2.4375,6.25 -2.4375,20.875 v 26.625 h -8.6875 v -34.8125 q 0,-12.3125 -1.5625,-16.6875 -1.5,-4.4375 -5.3125,-7.0625 -3.8125,-2.6875 -9.0625,-2.6875 -6.0625,0 -11.375,3.6875 -5.25,3.625 -7.8125,9.8125 -2.5,6.1875 -2.5,18.9375 v 28.8125 h -8.6875 z"
         style="font-style:normal;font-variant:normal;font-weight:normal;font-stretch:normal;font-size:128px;font-family:'Century Gothic';-inkscape-font-specification:'Century Gothic'"
         id="path4649" /></g></g></svg>